<svg width="200" height="200" viewBox="0 0 200 200" fill="none" xmlns="http://www.w3.org/2000/svg">
<path fill-rule="evenodd" clip-rule="evenodd" d="M163.307 106.442C146.882 111.846 130.405 109.906 119.562 102.527C124.073 90.1102 136.286 78.7315 152.711 73.3273C169.141 67.923 185.614 69.8634 196.456 77.2379C196.089 78.243 195.677 79.2313 195.222 80.1996C189.962 91.4422 178.414 101.468 163.307 106.442Z" fill="#00858B"/>
<path fill-rule="evenodd" clip-rule="evenodd" d="M157.596 124.771C140.456 122.643 126.328 113.834 119.566 102.515C128.817 93.1834 144.626 88.0898 161.766 90.2175C178.907 92.3451 193.039 101.154 199.8 112.473C199.29 112.983 198.762 113.486 198.217 113.971C188.805 122.345 173.8 126.779 157.596 124.771V124.771Z" fill="#007E82"/>
<path fill-rule="evenodd" clip-rule="evenodd" d="M143.447 140.119C129.144 130.31 120.515 115.949 119.574 102.744C132.004 98.706 148.366 101.468 162.672 111.28C176.978 121.089 185.608 135.451 186.544 148.655C185.761 148.91 184.969 149.138 184.17 149.336C172.081 152.319 156.864 149.315 143.447 140.119Z" fill="#006E72"/>
<path fill-rule="evenodd" clip-rule="evenodd" d="M125.694 146.834C116.8 131.821 114.954 115.107 119.592 102.736C132.541 104.396 146.222 113.894 155.115 128.907C164.009 143.924 165.86 160.638 161.217 173.009C160.14 172.87 159.069 172.682 158.009 172.443C146.051 169.753 133.856 160.613 125.694 146.838V146.834Z" fill="#006063"/>
<path fill-rule="evenodd" clip-rule="evenodd" d="M134.149 52.1021C131.361 83.634 103.902 106.902 72.8124 104.081C68.9826 103.732 65.2719 103.004 61.7188 101.932L127.723 20C132.917 29.8566 135.149 41.0056 134.149 52.1021V52.1021Z" fill="#00A8B3" fill-opacity="0.84"/>
<path fill-rule="evenodd" clip-rule="evenodd" d="M91.634 85.9278L91.1489 85.6002C83.6936 80.6555 75.3319 74.4342 66.5489 72.4342C60.7447 71.1108 55.0511 72.1449 50.2936 75.7449C46.0298 78.9704 44.983 83.7449 41.5702 87.5193C38.4383 90.9874 0 107.821 0 107.821L0.53617 109.098C0.53617 109.098 36.4426 93.0129 43.7574 94.3576C51.0723 95.7066 65.8638 100.26 75.2809 119.413C85.2085 139.596 104.353 152.064 114.991 150.524L104.651 180.481C157.906 183.064 138.979 137.796 122.557 115.17C129.872 113.043 136.966 109.838 143.515 106.336C147.515 104.196 151.264 101.528 154.732 98.4768C162.264 91.8385 168.468 83.4044 173.021 74.681C179.145 62.9576 184.579 48.7874 186.243 35.498L91.634 85.9236V85.9278Z" fill="#00C2CE"/>
</svg>
