<svg width="200" height="200" viewBox="0 0 200 200" fill="none" xmlns="http://www.w3.org/2000/svg">
<path d="M85.5868 94.0155L12.1387 20.4812V94.0155H85.5868Z" fill="#FF86FF"/>
<path d="M10.4459 1.78433L104.245 95.7502C105.357 96.8755 105.982 98.3948 105.982 99.9787C105.982 101.563 105.357 103.082 104.245 104.207C103.67 104.801 102.978 105.265 102.212 105.572C101.447 105.879 100.625 106.021 99.8014 105.988H6.18047C5.39108 105.994 4.60815 105.843 3.87772 105.543C3.14727 105.243 2.48382 104.8 1.92562 104.241C1.36743 103.682 0.925661 103.017 0.626304 102.285C0.326945 101.553 0.175895 100.769 0.181808 99.9787V5.9685C0.189824 4.78056 0.549045 3.62167 1.21427 2.63822C1.87948 1.65477 2.82081 0.890929 3.91921 0.443168C5.0176 -0.00459315 6.22401 -0.116133 7.38568 0.122584C8.54737 0.3613 9.61218 0.939521 10.4459 1.78433Z" fill="#FF86FF"/>
<path d="M114.467 105.987L187.871 179.521V105.987H114.467Z" fill="#E200F1"/>
<path d="M189.559 198.173L95.7596 104.207C94.647 103.082 94.0234 101.562 94.0234 99.9781C94.0234 98.3942 94.647 96.8749 95.7596 95.7496C96.3452 95.1756 97.0413 94.7256 97.8046 94.4276C98.5679 94.129 99.3837 93.9883 100.203 94.0136H194.046C195.625 94.0136 197.14 94.6423 198.256 95.7609C199.373 96.8796 200 98.3962 200 99.9781V193.988C200.006 194.775 199.857 195.556 199.56 196.285C199.263 197.013 198.825 197.677 198.272 198.235C197.719 198.793 197.06 199.237 196.335 199.539C195.61 199.842 194.832 199.998 194.046 199.998C193.221 200.011 192.401 199.857 191.638 199.543C190.874 199.229 190.181 198.763 189.603 198.173" fill="#E200F1"/>
<path d="M104.24 104.206L10.4419 198.172C9.86505 198.764 9.17323 199.231 8.40895 199.545C7.64473 199.859 6.82437 200.013 5.99855 199.997C5.20917 200.003 4.42651 199.851 3.69607 199.551C2.96563 199.251 2.3019 198.809 1.74371 198.25C1.18551 197.691 0.744022 197.026 0.444662 196.294C0.145304 195.562 -0.00574617 194.778 0.000167137 193.988V99.9776C0.000145177 99.1903 0.155415 98.411 0.457409 97.6843C0.759404 96.9584 1.20211 96.2984 1.75971 95.7437C2.31731 95.1897 2.97886 94.7511 3.70638 94.4538C4.4339 94.1571 5.21293 94.0071 5.99855 94.0131H100.019C101.219 93.9624 102.406 94.2764 103.425 94.9144C104.443 95.5517 105.245 96.483 105.725 97.585C106.206 98.6876 106.343 99.9096 106.117 101.092C105.892 102.273 105.315 103.359 104.463 104.206" fill="#FF59FF"/>
<path d="M12.1387 179.521L85.5868 105.987H12.1387V179.521Z" fill="#FF59FF"/>
<path d="M1.95556 189.762L95.7541 95.796C96.3284 95.2026 97.0205 94.738 97.7864 94.4313C98.5517 94.124 99.3735 93.9827 100.197 94.0153C101.777 94.0153 103.291 94.644 104.408 95.7626C105.524 96.8813 106.152 98.3979 106.152 99.9798V193.99C106.157 194.777 106.008 195.558 105.711 196.286C105.415 197.015 104.977 197.678 104.423 198.237C103.87 198.796 103.212 199.239 102.487 199.541C101.761 199.844 100.983 200 100.197 200H6.17678C5.38917 200.007 4.60834 199.852 3.88243 199.546C3.15652 199.24 2.50081 198.788 1.95556 198.219C1.39397 197.668 0.947795 197.01 0.643222 196.284C0.338649 195.558 0.181641 194.778 0.181641 193.99C0.181641 193.202 0.338649 192.423 0.643222 191.697C0.947795 190.971 1.39397 190.313 1.95556 189.762Z" fill="#F41AFA"/>
<path d="M94.0306 114.489L20.627 188.024H94.0306V114.489Z" fill="#F41AFA"/>
<path d="M95.7569 95.7516L189.555 1.78603C190.136 1.20181 190.83 0.742484 191.594 0.436315C192.358 0.130149 193.176 -0.0163754 193.999 0.00556316C194.781 0.00556316 195.555 0.159792 196.278 0.459544C197 0.759297 197.656 1.19874 198.209 1.75261C198.762 2.30648 199.2 2.96401 199.5 3.68767C199.799 4.41134 199.953 5.18691 199.953 5.9702V99.9801C199.959 100.767 199.809 101.548 199.513 102.277C199.216 103.005 198.779 103.668 198.225 104.227C197.671 104.785 197.013 105.229 196.288 105.531C195.562 105.834 194.784 105.989 193.999 105.989H100.023C98.8234 106.027 97.6402 105.702 96.6267 105.059C95.6132 104.415 94.816 103.481 94.3375 102.379C93.859 101.277 93.7213 100.056 93.9429 98.8742C94.1645 97.6929 94.7341 96.6056 95.5793 95.7516" fill="#BC00DE"/>
<path d="M187.871 20.4812L114.467 94.0155H187.871V20.4812Z" fill="#BC00DE"/>
<path d="M198.081 10.2419L104.282 104.208C103.695 104.784 103.001 105.237 102.238 105.543C101.476 105.849 100.66 106 99.8385 105.988C99.0492 105.994 98.2666 105.843 97.536 105.543C96.8059 105.243 96.1425 104.8 95.5842 104.241C95.0258 103.682 94.584 103.017 94.2845 102.286C93.9857 101.554 93.8347 100.77 93.84 99.979V5.96875C93.84 5.1817 93.9957 4.40247 94.2978 3.67589C94.5999 2.94931 95.0425 2.28972 95.6001 1.73526C96.1571 1.18081 96.8193 0.74244 97.5466 0.44532C98.274 0.148199 99.0532 -0.00176472 99.8385 0.00410878H193.682C194.502 -0.0262728 195.319 0.11209 196.083 0.410681C196.848 0.709274 197.542 1.16167 198.125 1.74002C199.241 2.87281 199.866 4.39998 199.866 5.99103C199.866 7.5821 199.241 9.10912 198.125 10.2419" fill="#9900CC"/>
<path d="M105.98 85.513L179.429 11.9788H105.98V85.513Z" fill="#9900CC"/>
</svg>
