<svg width="200" height="200" viewBox="0 0 200 200" fill="none" xmlns="http://www.w3.org/2000/svg">
<path d="M100 200C155.228 200 200 155.228 200 100C200 44.7715 155.228 0 100 0C44.7715 0 0 44.7715 0 100C0 155.228 44.7715 200 100 200Z" fill="white"/>
<path d="M141.851 49.9391C141.851 49.9391 147.946 37.5494 147.157 34.7101C146.422 31.9568 146.37 31.0964 140.852 27.7408C138.645 28.5582 134.704 29.7198 131.499 29.2035C126.77 28.4722 124.353 27.1386 122.094 25.5038C119.835 23.869 118.626 21.46 118.416 20.0403C118.363 19.6961 118.836 19.438 119.204 19.6531C121.148 20.8147 122.724 22.9226 128.242 24.4283C131.394 25.2887 133.969 25.0306 135.545 24.6004C128.557 20.6426 118.416 15.222 112.373 13.5873C104.649 11.5223 101.181 15.5662 101.181 15.5662L93.9297 24.9446C93.9297 24.9446 106.12 26.4072 118.573 32.1289C130.974 37.8075 141.851 49.9391 141.851 49.9391Z" fill="#4B11F2"/>
<path d="M169.948 71.725C168.312 71.9345 165.831 71.9345 162.504 71.1496C149.477 67.7487 141.469 47.8135 118.912 35.2557C82.8775 17.989 63.5345 33.5813 63.5345 33.5813C61.0536 35.151 63.5909 36.1452 63.5909 36.1452L75.4335 41.6915L81.0167 44.4123C81.0167 44.4123 77.4639 48.6507 70.2452 45.4064C67.8769 44.4647 63.1397 44.203 59.4743 47.2377C55.4704 49.2783 57.2187 55.1907 54.2866 58.9585C51.4102 62.7257 45.6581 62.0976 45.038 67.5391C44.5306 73.0857 49.2672 74.1319 49.3804 78.2655C49.493 82.3991 47.8575 84.7538 47.4063 85.8527C47.2374 86.3236 47.1247 86.8989 47.1247 87.4748C47.1811 88.2592 47.5759 89.0441 48.1396 89.6722C48.5908 90.1431 48.9856 90.4572 49.4367 90.7184C51.3539 91.9219 52.9895 93.4917 54.0607 95.3756C54.2297 95.6892 54.3992 96.0032 54.6245 96.3173C54.794 96.5791 54.963 96.8927 55.1888 97.259C56.429 99.2996 56.937 101.707 56.4859 104.061C56.3727 104.689 56.429 105.422 56.6549 106.102C57.106 107.358 58.2904 108.299 59.7002 108.666C61.7863 109.137 63.5909 110.288 64.8316 111.91C64.9443 112.014 65.0011 112.171 65.1138 112.276C66.8057 114.474 66.4672 117.927 67.1436 120.438C67.8206 122.95 70.0763 123.735 73.3468 125.461C76.618 127.188 77.2944 129.909 75.941 131.217C74.5876 132.525 66.5798 129.334 63.3656 132.891C60.9972 134.932 62.0122 136.24 60.8277 140.112C59.6438 144.036 56.0342 141.158 54.117 143.879C52.1999 146.6 51.9177 149.531 52.8763 155.338C53.8354 161.146 59.9255 169.152 59.9255 169.152C59.9255 169.152 56.6549 158.582 63.7604 149.531C69.7941 142.938 74.4186 142.048 81.242 141.943C88.1216 141.786 98.2724 147.542 100.359 158.844C101.43 166.326 97.0317 170.669 96.6937 171.088C95.9041 171.925 89.4187 178.57 80.7908 174.122C78.4225 172.605 76.3358 171.035 74.9261 168C73.9112 165.227 73.629 161.512 75.3209 159.001C76.7306 156.908 78.9863 156.28 79.6633 156.228C80.6782 156.123 82.8775 156.176 84.2873 157.17C85.697 158.163 87.2194 159.629 86.9377 162.14C86.6556 164.652 83.8361 165.384 82.7643 165.175C81.8621 165.018 82.4827 165.123 82.708 165.175C80.9598 165.07 80.1707 163.815 79.8322 162.925C79.7759 162.716 79.4374 162.768 79.3811 162.977C78.8736 166.431 81.6931 168.629 83.385 168.995C85.2458 169.361 88.009 169.308 90.2647 167.163C92.2387 165.332 93.3099 163.762 93.3099 159.733C93.3099 156.437 91.8439 154.135 89.4187 152.147C86.2608 149.425 82.0879 148.379 79.2116 148.588C76.5048 148.798 71.7681 149.844 68.6665 154.396C65.7902 158.582 64.55 164.338 66.9746 170.774L67.0873 170.983C72.6141 182.965 85.528 186 94.438 186C96.2426 186 97.8776 185.895 99.231 185.686C99.5132 185.634 105.885 184.744 112.089 181.186C119.758 176.477 124.326 169.675 124.326 159.158C124.326 145.187 117.728 135.874 104.194 121.328C101.6 118.345 91.0543 106.259 89.1371 103.904C79.7196 92.6023 69.174 79.3122 74.4186 69.2135C74.5876 68.8999 74.7566 68.6381 74.9261 68.324C82.7643 54.9817 104.87 58.2781 100.021 59.1152C91.6181 60.4232 86.5993 63.8764 85.0769 65.394C83.554 66.9115 82.708 68.2195 81.6931 70.6788C79.9449 74.7078 81.3546 80.9343 85.0769 86.3758C101.261 107.671 125.172 134.199 128.104 140.583C131.883 148.641 132.447 155.024 132.39 158.948C132.334 162.873 131.318 169.152 131.318 169.152C131.318 169.152 136.902 165.018 139.552 159.995C142.202 154.972 142.654 152.565 141.864 150.681C141.018 148.798 138.931 148.746 138.086 145.658C137.24 142.571 139.608 139.85 137.127 134.932C136.056 132.787 130.36 129.647 127.428 126.194C124.495 122.741 119.138 116.567 115.134 111.596C107.916 102.701 105.547 99.666 101.374 94.643C105.885 95.8987 111.525 97.6253 124.495 92.027C136.507 97.7298 144.74 97.4163 147.616 97.259C150.492 97.1022 153.199 95.8987 155.285 94.3812C156.639 93.3872 157.654 91.3988 158.274 90.0908C158.5 89.62 157.992 89.2014 157.485 89.3582C147.39 93.2299 138.086 90.0908 126.638 84.1784L124.608 83.1317L122.578 84.1257C110.566 90.0908 97.9339 85.4342 96.8064 85.0156C96.3552 84.806 92.9151 83.1317 91.3928 80.3062C89.8698 77.4806 89.5319 74.4983 90.6595 71.9868C91.5617 69.9461 93.7048 68.5858 97.2012 67.9055C100.077 67.5914 103.799 68.5859 106.788 69.6848C107.465 69.9461 108.085 69.3185 107.803 68.7426C107.465 67.9055 107.239 67.016 107.239 66.0744C107.239 64.5045 107.803 63.092 108.705 61.9408L112.709 63.6674C112.032 64.295 111.637 65.2372 111.75 66.2834C111.92 67.6442 113.16 68.7949 114.626 68.9522C116.6 69.2135 118.236 67.8532 118.404 66.1266L122.183 67.7487C121.506 70.3124 119.364 72.3008 116.6 72.9284C116.036 73.0335 115.98 73.7134 116.544 73.8706C121.676 76.1203 136.676 82.6086 136.676 82.6086C136.676 82.6086 145.36 87.1085 152.973 86.2186C160.304 85.8527 163.575 80.4634 159.233 80.9865C154.891 81.5096 144.627 77.3761 144.627 77.3761L137.747 74.3937L140.623 70.2602C140.623 70.2602 150.436 75.4399 159.12 77.2193C164.872 78.3705 168.763 75.3354 170.737 73.138C171.357 72.5621 170.793 71.6204 169.948 71.725ZM89.6445 53.5692C85.9792 53.9877 80.396 55.557 77.2381 56.9701C76.0536 57.4932 75.0387 58.0163 74.1928 58.4871C71.4297 60.1614 68.9481 62.6734 66.9746 66.1266C59.249 80.0449 73.4032 97.1022 84.7947 110.811C86.7119 113.113 88.4601 115.259 90.0394 117.246C92.464 120.334 95.1145 123.368 97.7086 126.246C104.363 133.833 111.694 141.891 114.852 150.839C115.698 153.978 115.811 156.908 115.416 159.262C114.063 166.588 107.182 169.099 107.182 169.099C108.198 166.064 108.762 162.14 108.141 157.64V157.536C106.055 147.019 96.8627 137.705 96.8627 137.705C94.6633 134.984 92.295 132.159 90.3778 129.857C71.0349 106.782 69.1177 104.166 64.55 96.4741L64.4931 96.3696C64.3805 96.1605 64.2115 95.8987 64.042 95.6369C61.3921 91.5033 54.2866 80.4634 57.3882 68.8999C58.1209 66.2311 59.418 63.8242 61.2789 61.7312C72.6141 48.0748 94.3249 52.732 89.6445 53.5692Z" fill="#4B11F2"/>
</svg>
